<mxfile host="app.diagrams.net" modified="2024-03-25T19:28:39.432Z" agent="Mozilla/5.0 (Windows NT 10.0; Win64; x64) AppleWebKit/537.36 (KHTML, like Gecko) Chrome/122.0.0.0 Safari/537.36" etag="gaWoEWqnE5ulzZ-1Eo0I" version="24.0.7" type="github">
  <diagram name="Page-1" id="b5b7bab2-c9e2-2cf4-8b2a-24fd1a2a6d21">
    <mxGraphModel dx="48" dy="471" grid="1" gridSize="10" guides="1" tooltips="1" connect="1" arrows="1" fold="1" page="1" pageScale="1" pageWidth="827" pageHeight="1169" background="none" math="0" shadow="0">
      <root>
        <mxCell id="0" />
        <mxCell id="1" parent="0" />
        <mxCell id="pjT7QFBW1pwN29keUiwO-2" value="" style="shape=folder;fontStyle=1;spacingTop=10;tabWidth=150;tabHeight=30;tabPosition=left;html=1;whiteSpace=wrap;fillColor=none;" vertex="1" parent="1">
          <mxGeometry x="1450" y="290" width="460" height="380" as="geometry" />
        </mxCell>
        <mxCell id="pjT7QFBW1pwN29keUiwO-3" style="edgeStyle=orthogonalEdgeStyle;rounded=0;orthogonalLoop=1;jettySize=auto;html=1;exitX=0;exitY=0;exitDx=110;exitDy=25.5;exitPerimeter=0;dashed=1;endArrow=open;endFill=0;" edge="1" parent="1" source="pjT7QFBW1pwN29keUiwO-4" target="pjT7QFBW1pwN29keUiwO-7">
          <mxGeometry relative="1" as="geometry" />
        </mxCell>
        <mxCell id="pjT7QFBW1pwN29keUiwO-4" value="Home security station access" style="shape=folder;fontStyle=1;spacingTop=10;tabWidth=40;tabHeight=14;tabPosition=left;html=1;whiteSpace=wrap;" vertex="1" parent="1">
          <mxGeometry x="1470" y="430" width="110" height="60" as="geometry" />
        </mxCell>
        <mxCell id="pjT7QFBW1pwN29keUiwO-5" value="Authenticator Service" style="shape=folder;fontStyle=1;spacingTop=10;tabWidth=40;tabHeight=14;tabPosition=left;html=1;whiteSpace=wrap;" vertex="1" parent="1">
          <mxGeometry x="1710" y="340" width="100" height="70" as="geometry" />
        </mxCell>
        <mxCell id="pjT7QFBW1pwN29keUiwO-6" style="edgeStyle=orthogonalEdgeStyle;rounded=0;orthogonalLoop=1;jettySize=auto;html=1;dashed=1;endArrow=open;endFill=0;" edge="1" parent="1" source="pjT7QFBW1pwN29keUiwO-7" target="pjT7QFBW1pwN29keUiwO-5">
          <mxGeometry relative="1" as="geometry" />
        </mxCell>
        <mxCell id="pjT7QFBW1pwN29keUiwO-7" value="Cryptografy Service (Key and certificate manegement)" style="shape=folder;fontStyle=1;spacingTop=10;tabWidth=40;tabHeight=14;tabPosition=left;html=1;whiteSpace=wrap;" vertex="1" parent="1">
          <mxGeometry x="1560" y="340" width="110" height="80" as="geometry" />
        </mxCell>
        <mxCell id="pjT7QFBW1pwN29keUiwO-8" value="Image analasis and thread detection service" style="shape=folder;fontStyle=1;spacingTop=10;tabWidth=40;tabHeight=14;tabPosition=left;html=1;whiteSpace=wrap;" vertex="1" parent="1">
          <mxGeometry x="1630" y="575" width="100" height="80" as="geometry" />
        </mxCell>
        <mxCell id="pjT7QFBW1pwN29keUiwO-9" style="edgeStyle=orthogonalEdgeStyle;rounded=0;orthogonalLoop=1;jettySize=auto;html=1;exitX=0;exitY=0;exitDx=0;exitDy=48.5;exitPerimeter=0;dashed=1;endArrow=open;endFill=0;" edge="1" parent="1" source="pjT7QFBW1pwN29keUiwO-10" target="pjT7QFBW1pwN29keUiwO-4">
          <mxGeometry relative="1" as="geometry">
            <Array as="points">
              <mxPoint x="1800" y="470" />
            </Array>
          </mxGeometry>
        </mxCell>
        <mxCell id="pjT7QFBW1pwN29keUiwO-10" value="Home data management Service&amp;nbsp;" style="shape=folder;fontStyle=1;spacingTop=10;tabWidth=40;tabHeight=14;tabPosition=left;html=1;whiteSpace=wrap;" vertex="1" parent="1">
          <mxGeometry x="1790" y="420" width="100" height="70" as="geometry" />
        </mxCell>
        <mxCell id="pjT7QFBW1pwN29keUiwO-11" style="edgeStyle=orthogonalEdgeStyle;rounded=0;orthogonalLoop=1;jettySize=auto;html=1;entryX=0.25;entryY=1;entryDx=0;entryDy=0;entryPerimeter=0;exitX=0;exitY=0;exitDx=0;exitDy=42;exitPerimeter=0;dashed=1;endArrow=openThin;endFill=0;" edge="1" parent="1" source="pjT7QFBW1pwN29keUiwO-8" target="pjT7QFBW1pwN29keUiwO-4">
          <mxGeometry relative="1" as="geometry" />
        </mxCell>
        <mxCell id="pjT7QFBW1pwN29keUiwO-12" style="edgeStyle=orthogonalEdgeStyle;rounded=0;orthogonalLoop=1;jettySize=auto;html=1;entryX=0;entryY=0;entryDx=100;entryDy=42;entryPerimeter=0;exitX=0.5;exitY=1;exitDx=0;exitDy=0;exitPerimeter=0;endArrow=open;endFill=0;dashed=1;" edge="1" parent="1" source="pjT7QFBW1pwN29keUiwO-10" target="pjT7QFBW1pwN29keUiwO-8">
          <mxGeometry relative="1" as="geometry" />
        </mxCell>
        <mxCell id="pjT7QFBW1pwN29keUiwO-13" style="edgeStyle=orthogonalEdgeStyle;rounded=0;orthogonalLoop=1;jettySize=auto;html=1;entryX=0.5;entryY=1;entryDx=0;entryDy=0;entryPerimeter=0;exitX=0;exitY=0;exitDx=0;exitDy=25.5;exitPerimeter=0;dashed=1;endArrow=open;endFill=0;" edge="1" parent="1" source="pjT7QFBW1pwN29keUiwO-10" target="pjT7QFBW1pwN29keUiwO-5">
          <mxGeometry relative="1" as="geometry">
            <Array as="points">
              <mxPoint x="1790" y="460" />
              <mxPoint x="1760" y="460" />
            </Array>
          </mxGeometry>
        </mxCell>
        <mxCell id="pjT7QFBW1pwN29keUiwO-14" value=": Domain Model" style="text;html=1;align=center;verticalAlign=middle;whiteSpace=wrap;rounded=0;" vertex="1" parent="1">
          <mxGeometry x="1458" y="300" width="122" height="10" as="geometry" />
        </mxCell>
        <mxCell id="pjT7QFBW1pwN29keUiwO-15" value="Notification service" style="shape=folder;fontStyle=1;spacingTop=10;tabWidth=40;tabHeight=14;tabPosition=left;html=1;whiteSpace=wrap;" vertex="1" parent="1">
          <mxGeometry x="1630" y="483" width="100" height="80" as="geometry" />
        </mxCell>
        <mxCell id="pjT7QFBW1pwN29keUiwO-16" style="edgeStyle=orthogonalEdgeStyle;rounded=0;orthogonalLoop=1;jettySize=auto;html=1;exitX=0.25;exitY=1;exitDx=0;exitDy=0;exitPerimeter=0;entryX=0;entryY=0;entryDx=100;entryDy=47;entryPerimeter=0;dashed=1;endArrow=open;endFill=0;" edge="1" parent="1" source="pjT7QFBW1pwN29keUiwO-10" target="pjT7QFBW1pwN29keUiwO-15">
          <mxGeometry relative="1" as="geometry" />
        </mxCell>
      </root>
    </mxGraphModel>
  </diagram>
</mxfile>
